<?xml version="1.0" encoding="UTF-8"?>
<!-- Generated by Pixelmator Pro 3.8 -->
<svg width="711" height="52" viewBox="0 0 711 52" xmlns="http://www.w3.org/2000/svg">
    <path id="Path" fill="none" stroke="#205896" stroke-width="14" stroke-linecap="round" stroke-linejoin="round" d="M 10.964998 43.633934 C 19.926069 36.060539 27.700356 17.459713 41.925243 17.468143 C 56.355125 17.47665 56.587788 43.548698 70.977516 44.046741 C 89.705811 44.694885 98.09993 11.147137 116.743965 12.346931 C 132.15889 13.338959 128.583359 42.109589 144.054764 42.74905 C 160.108795 43.412624 164.426712 14.076618 180.545502 13.881622 C 197.140427 13.680824 200.584122 42.775936 217.175903 42.70406 C 232.894745 42.635914 238.009766 14.831989 253.710297 15.089413 C 268.879028 15.338131 269.544098 42.279461 284.678986 42.855225 C 303.792725 43.582344 313.425598 9.225529 332.318115 11.090088 C 346.414551 12.481251 339.801453 39.335518 353.967285 40.435654 C 371.803589 41.820812 378.046844 8.072281 395.988434 8.866669 C 410.984955 9.53067 408.503906 36.257687 423.255463 38.016083 C 440.483826 40.069771 455.612823 12.37534 473.029846 13.701744 C 484.51651 14.576508 486.567841 33.630817 498.11792 34.147575 C 512.69989 34.799988 522.159912 10.567734 536.700073 11.478325 C 549.089233 12.254189 549.449768 33.882511 561.875854 34.429562 C 577.161621 35.102547 585.018494 9.387466 600.370361 9.25491 C 613.792114 9.138977 619.647522 29.982473 632.993042 30.691877 C 649.448425 31.56657 665.080444 6.18087 680.981995 8.948357 C 694.045593 11.221897 695.003479 28.95657 700.714844 37.106552"/>
</svg>
